<?xml version="1.0" encoding="UTF-8"?><svg id="Calque_2" xmlns="http://www.w3.org/2000/svg" xmlns:xlink="http://www.w3.org/1999/xlink" viewBox="0 0 1130 620"><defs><style>.cls-1{filter:url(#outer-glow-3);}.cls-1,.cls-2,.cls-3,.cls-4,.cls-5,.cls-6,.cls-7,.cls-8,.cls-9,.cls-10,.cls-11,.cls-12{fill:none;stroke:aqua;stroke-miterlimit:10;stroke-width:2px;}.cls-2{filter:url(#outer-glow-9);}.cls-3{filter:url(#outer-glow-6);}.cls-4{filter:url(#outer-glow-8);}.cls-5{filter:url(#outer-glow-12);}.cls-6{filter:url(#outer-glow-10);}.cls-7{filter:url(#outer-glow-1);}.cls-8{filter:url(#outer-glow-5);}.cls-9{filter:url(#outer-glow-4);}.cls-10{filter:url(#outer-glow-2);}.cls-11{filter:url(#outer-glow-7);}.cls-12{filter:url(#outer-glow-11);}</style><filter id="outer-glow-1" filterUnits="userSpaceOnUse"><feOffset dx="0" dy="0"/><feGaussianBlur result="blur" stdDeviation="9"/><feFlood flood-color="#00a4ff" flood-opacity=".82"/><feComposite in2="blur" operator="in"/><feComposite in="SourceGraphic"/></filter><filter id="outer-glow-2" filterUnits="userSpaceOnUse"><feOffset dx="0" dy="0"/><feGaussianBlur result="blur-2" stdDeviation="9"/><feFlood flood-color="#00a4ff" flood-opacity=".82"/><feComposite in2="blur-2" operator="in"/><feComposite in="SourceGraphic"/></filter><filter id="outer-glow-3" filterUnits="userSpaceOnUse"><feOffset dx="0" dy="0"/><feGaussianBlur result="blur-3" stdDeviation="9"/><feFlood flood-color="#00a4ff" flood-opacity=".82"/><feComposite in2="blur-3" operator="in"/><feComposite in="SourceGraphic"/></filter><filter id="outer-glow-4" filterUnits="userSpaceOnUse"><feOffset dx="0" dy="0"/><feGaussianBlur result="blur-4" stdDeviation="9"/><feFlood flood-color="#00a4ff" flood-opacity=".82"/><feComposite in2="blur-4" operator="in"/><feComposite in="SourceGraphic"/></filter><filter id="outer-glow-5" filterUnits="userSpaceOnUse"><feOffset dx="0" dy="0"/><feGaussianBlur result="blur-5" stdDeviation="9"/><feFlood flood-color="#00a4ff" flood-opacity=".82"/><feComposite in2="blur-5" operator="in"/><feComposite in="SourceGraphic"/></filter><filter id="outer-glow-6" filterUnits="userSpaceOnUse"><feOffset dx="0" dy="0"/><feGaussianBlur result="blur-6" stdDeviation="9"/><feFlood flood-color="#00a4ff" flood-opacity=".82"/><feComposite in2="blur-6" operator="in"/><feComposite in="SourceGraphic"/></filter><filter id="outer-glow-7" filterUnits="userSpaceOnUse"><feOffset dx="0" dy="0"/><feGaussianBlur result="blur-7" stdDeviation="9"/><feFlood flood-color="#00a4ff" flood-opacity=".82"/><feComposite in2="blur-7" operator="in"/><feComposite in="SourceGraphic"/></filter><filter id="outer-glow-8" filterUnits="userSpaceOnUse"><feOffset dx="0" dy="0"/><feGaussianBlur result="blur-8" stdDeviation="9"/><feFlood flood-color="#00a4ff" flood-opacity=".82"/><feComposite in2="blur-8" operator="in"/><feComposite in="SourceGraphic"/></filter><filter id="outer-glow-9" filterUnits="userSpaceOnUse"><feOffset dx="0" dy="0"/><feGaussianBlur result="blur-9" stdDeviation="9"/><feFlood flood-color="#00a4ff" flood-opacity=".82"/><feComposite in2="blur-9" operator="in"/><feComposite in="SourceGraphic"/></filter><filter id="outer-glow-10" filterUnits="userSpaceOnUse"><feOffset dx="0" dy="0"/><feGaussianBlur result="blur-10" stdDeviation="9"/><feFlood flood-color="#00a4ff" flood-opacity=".82"/><feComposite in2="blur-10" operator="in"/><feComposite in="SourceGraphic"/></filter><filter id="outer-glow-11" filterUnits="userSpaceOnUse"><feOffset dx="0" dy="0"/><feGaussianBlur result="blur-11" stdDeviation="9"/><feFlood flood-color="#00a4ff" flood-opacity=".82"/><feComposite in2="blur-11" operator="in"/><feComposite in="SourceGraphic"/></filter><filter id="outer-glow-12" filterUnits="userSpaceOnUse"><feOffset dx="0" dy="0"/><feGaussianBlur result="blur-12" stdDeviation="9"/><feFlood flood-color="#00a4ff" flood-opacity=".82"/><feComposite in2="blur-12" operator="in"/><feComposite in="SourceGraphic"/></filter></defs><g id="Calque_1-2"><path class="cls-7" d="M166.518,361.032V28.83h131.84c15.687,0,26.549,17.085,26.549,41.289v76.405c0,24.204-12.672,39.866-27.152,39.866v9.014c14.48,0,27.152,15.663,27.152,40.339v84c0,24.204-10.861,41.289-26.549,41.289H166.518Zm92.317-248.679h-26.248v37.018h26.248v-37.018Zm-26.248,165.628h26.248v-45.559h-26.248v45.559Z"/><path class="cls-10" d="M346.005,28.83h65.769v249.152h66.372v83.051h-132.141V28.83Z"/><path class="cls-1" d="M493.216,361.032V28.83h65.769V361.032h-65.769Z"/><path class="cls-9" d="M689.305,182.593l-8.75-112.474V28.83h60.943V361.032h-69.993l-31.074-153.286h-5.129l8.447,111.998v41.289h-60.64V28.83h69.993l30.771,153.763h5.432Z"/><path class="cls-8" d="M765.616,361.032V28.83h131.84c15.387,0,26.246,17.085,26.246,41.289v249.625c0,24.204-10.859,41.289-26.246,41.289h-131.84Zm65.769-83.051h26.549V112.353h-26.549v165.628Z"/><path class="cls-3" d="M98.431,489.92h-5.129v101.368H28.738v-26.248l21.722-184.938H124.073l15.99,83.267h4.525l15.99-83.267h73.915l21.42,184.938v26.248h-64.259v-101.368h-5.432l-16.291,101.368h-55.21l-16.291-101.368Z"/><path class="cls-11" d="M273.996,591.288v-211.185h65.769v211.185h-65.769Z"/><path class="cls-4" d="M357.854,450.7v-44.349c0-15.387,10.861-26.248,26.551-26.248h114.643v25.945l-10.258,27.152h-64.865v9.654l57.322,38.316c14.482,9.654,17.801,19.006,17.801,35.902v47.968c0,15.387-10.861,26.248-26.248,26.248h-114.946v-52.796h75.122v-13.879l-57.322-38.013c-14.48-9.955-17.801-19.006-17.801-35.9Z"/><path class="cls-2" d="M511.1,450.7v-44.349c0-15.387,10.861-26.248,26.551-26.248h114.643v25.945l-10.258,27.152h-64.865v9.654l57.322,38.316c14.482,9.654,17.801,19.006,17.801,35.902v47.968c0,15.387-10.861,26.248-26.248,26.248h-114.946v-52.796h75.122v-13.879l-57.322-38.013c-14.48-9.955-17.801-19.006-17.801-35.9Z"/><path class="cls-6" d="M670.381,591.288v-211.185h65.769v211.185h-65.769Z"/><path class="cls-12" d="M786.823,591.288c-15.687,0-26.549-10.861-26.549-26.248v-158.69c0-15.387,10.861-26.248,26.549-26.248h105.292c15.687,0,26.549,10.861,26.549,26.248v158.69c0,15.387-10.861,26.248-26.549,26.248h-105.292Zm39.521-158.088v105.292h26.248v-105.292h-26.248Z"/><path class="cls-5" d="M1048.977,477.852l-8.75-71.501v-26.248h60.943v211.185h-69.993l-31.074-97.446h-5.129l8.447,71.198v26.248h-60.64v-211.185h69.993l30.771,97.749h5.432Z"/></g></svg>